HIERARCHY
ROOT Hips
{
 OFFSET 0.000000 0.000000 0.000000
 CHANNELS 6 Xposition Yposition Zposition Yrotation Xrotation Zrotation
 JOINT Chest
 {
  OFFSET 0.000000 9.585900 0.002600
  CHANNELS 3 Yrotation Xrotation Zrotation
  JOINT Chest2
  {
   OFFSET 0.000000 9.601200 -0.005300
   CHANNELS 3 Yrotation Xrotation Zrotation
   JOINT Chest3
   {
    OFFSET 0.000000 9.561800 0.000000
    CHANNELS 3 Yrotation Xrotation Zrotation
    JOINT Chest4
    {
     OFFSET 0.000000 9.552100 0.000000
     CHANNELS 3 Yrotation Xrotation Zrotation
     JOINT Neck
     {
      OFFSET 0.000000 14.453000 0.000000
      CHANNELS 3 Yrotation Xrotation Zrotation
      JOINT Head
      {
       OFFSET 0.000000 8.936500 -0.011300
       CHANNELS 3 Yrotation Xrotation Zrotation
       End Site
       {
        OFFSET 0.000000 17.073600 -0.006000
       }
      }
     }
     JOINT RightCollar
     {
      OFFSET -2.921100 9.558500 0.000000
      CHANNELS 3 Yrotation Xrotation Zrotation
      JOINT RightShoulder
      {
       OFFSET -13.519700 0.000000 0.000000
       CHANNELS 3 Yrotation Xrotation Zrotation
       JOINT RightElbow
       {
        OFFSET 0.000000 -29.696600 0.000000
        CHANNELS 3 Yrotation Xrotation Zrotation
        JOINT RightWrist
        {
         OFFSET 0.000000 -24.004700 0.000000
         CHANNELS 3 Yrotation Xrotation Zrotation
         End Site
         {
          OFFSET 0.000000 -17.728500 0.000000
         }
        }
       }
      }
     }
     JOINT LeftCollar
     {
      OFFSET 2.921100 9.558500 0.000000
      CHANNELS 3 Yrotation Xrotation Zrotation
      JOINT LeftShoulder
      {
       OFFSET 13.519700 0.000000 0.000000
       CHANNELS 3 Yrotation Xrotation Zrotation
       JOINT LeftElbow
       {
        OFFSET 0.000000 -29.696600 0.000000
        CHANNELS 3 Yrotation Xrotation Zrotation
        JOINT LeftWrist
        {
         OFFSET 0.000000 -24.004700 0.000000
         CHANNELS 3 Yrotation Xrotation Zrotation
         End Site
         {
          OFFSET 0.000000 -17.728500 0.000000
         }
        }
       }
      }
     }
    }
   }
  }
 }
 JOINT RightHip
 {
  OFFSET -7.771700 -0.012900 -0.001300
  CHANNELS 3 Yrotation Xrotation Zrotation
  JOINT RightKnee
  {
   OFFSET 0.000000 -40.869800 0.001200
   CHANNELS 3 Yrotation Xrotation Zrotation
   JOINT RightAnkle
   {
    OFFSET 0.000000 -39.717900 0.002100
    CHANNELS 3 Yrotation Xrotation Zrotation
    JOINT RightToe
    {
     OFFSET 0.000000 -4.965400 11.033500
     CHANNELS 3 Yrotation Xrotation Zrotation
     End Site
     {
      OFFSET 0.000000 -1.423100 5.872300
     }
    }
   }
  }
 }
 JOINT LeftHip
 {
  OFFSET 7.771700 -0.012900 -0.001300
  CHANNELS 3 Yrotation Xrotation Zrotation
  JOINT LeftKnee
  {
   OFFSET 0.000000 -40.869800 0.001200
   CHANNELS 3 Yrotation Xrotation Zrotation
   JOINT LeftAnkle
   {
    OFFSET 0.000000 -39.717900 0.002100
    CHANNELS 3 Yrotation Xrotation Zrotation
    JOINT LeftToe
    {
     OFFSET 0.000000 -4.965400 11.033500
     CHANNELS 3 Yrotation Xrotation Zrotation
     End Site
     {
      OFFSET 0.000000 -1.423100 5.872300
     }
    }
   }
  }
 }
}
MOTION
Frames: 16
Frame Time: 0.008333
0.000000 85.388000 0.000000 0.000000 -5.767877 0.000000 0.000000 11.653817 0.000000 0.000000 -5.885947 0.000000 0.000000 -0.000000 0.000000 0.000000 -0.000000 0.000000 0.000000 12.528835 0.000000 0.000000 0.711642 0.000000 0.000000 -0.000000 0.000000 0.000000 0.000000 -90.000000 0.000000 -2.309062 0.000000 0.000000 2.309062 0.000000 0.000000 -0.000000 0.000000 0.000000 -0.000000 90.000000 0.000000 -2.309062 0.000000 0.000000 2.309062 0.000000 0.000000 8.520406 0.000000 0.000000 1.905762 0.000000 -0.000000 -4.658285 0.000000 0.000000 -0.000000 0.000000 0.000000 8.520406 0.000000 0.000000 1.905762 0.000000 -0.000000 -4.658285 0.000000 0.000000 -0.000000 0.000000
-14.368116 43.848239 25.015691 176.945272 -19.247503 -1.690635 -0.454766 16.534683 2.937981 -0.086352 1.714113 0.356556 -0.136715 2.857207 0.592478 -0.388956 14.582916 3.008596 -1.884874 16.669080 -2.262066 -1.495623 -8.166542 -1.961013 11.228682 1.167723 -4.432266 -5.061732 -6.562306 -5.006728 -162.800043 -82.923327 177.790535 -1.027881 6.391047 -25.209833 -16.786468 -2.699020 -6.799804 12.238267 -4.847997 5.281185 158.029809 -76.719302 -177.062840 14.272717 14.645696 30.917902 -4.568835 -70.987622 11.766254 -157.359148 67.267683 -155.282887 -10.340125 -24.514781 7.840112 0.170747 -0.665833 0.090075 0.816673 -55.451329 1.926963 -179.627669 56.585262 179.146897 -4.447204 -42.523473 3.317906 -0.059721 -5.021958 1.966535
-14.371011 43.848410 25.015651 176.951952 -19.252831 -1.689280 -0.461008 16.538688 2.933884 -0.085473 1.713026 0.356412 -0.136588 2.858033 0.593297 -0.389252 14.584764 3.010274 -1.878983 16.662549 -2.258538 -1.454501 -8.214843 -1.943417 11.225739 1.167720 -4.432144 -5.065046 -6.560441 -5.007575 -162.871056 -82.908460 177.863570 -1.022486 6.392344 -25.214817 -16.766257 -2.710202 -6.801250 12.242077 -4.833745 5.280745 158.122917 -76.677947 -177.111072 14.279764 14.656181 30.974628 -4.553541 -70.982076 11.750874 -157.372393 67.269664 -155.298981 -10.358340 -24.520995 7.852826 0.167978 -0.671560 0.084155 0.840390 -55.447156 1.908274 -179.639591 56.586696 179.142146 -4.456710 -42.520338 3.323543 -0.064475 -5.228911 2.043447
-14.374128 43.848847 25.015753 176.959964 -19.259450 -1.688938 -0.460877 16.542990 2.933006 -0.087782 1.714019 0.356780 -0.134891 2.859886 0.595270 -0.395075 14.584296 3.009921 -1.874423 16.656377 -2.254983 -1.445516 -8.234892 -1.937157 11.231486 1.164665 -4.429118 -5.073660 -6.556268 -5.011032 -162.932534 -82.899048 177.926916 -1.020707 6.395274 -25.222673 -16.744185 -2.720371 -6.799343 12.267390 -4.812368 5.274013 158.171389 -76.655184 -177.179588 14.248502 14.622301 31.050031 -4.538160 -70.975531 11.739283 -157.384166 67.270812 -155.314718 -10.385328 -24.524603 7.871243 0.197337 -0.671077 0.082430 0.858640 -55.441754 1.892289 -179.650967 56.588183 179.135194 -4.460115 -42.516458 3.326856 -0.073553 -5.395090 2.104604
-14.375566 43.849239 25.017422 176.960839 -19.259475 -1.697979 -0.457391 16.542714 2.942989 -0.088647 1.714566 0.356319 -0.131451 2.862060 0.596650 -0.398493 14.584345 3.013875 -1.867075 16.642422 -2.251290 -1.444673 -8.242606 -1.937409 11.241621 1.164566 -4.433435 -5.079057 -6.548920 -5.011741 -162.978157 -82.889869 177.967173 -1.020804 6.396490 -25.225881 -16.721813 -2.729177 -6.803197 12.282716 -4.797154 5.269825 158.578347 -76.604385 -177.516491 14.251449 14.637417 31.045544 -4.557161 -70.977028 11.767243 -157.400200 67.273944 -155.336086 -10.383941 -24.518468 7.870711 0.195980 -0.680222 0.086561 0.855164 -55.443924 1.910468 -179.630850 56.588555 179.149510 -4.455497 -42.515363 3.334629 -0.082691 -5.525727 2.152815
-14.377159 43.849992 25.019357 176.960976 -19.260105 -1.706557 -0.451966 16.542776 2.953800 -0.085644 1.715088 0.357782 -0.132201 2.866557 0.593860 -0.395871 14.584653 3.020786 -1.853548 16.622448 -2.243541 -1.455435 -8.250617 -1.937315 11.268357 1.160052 -4.441142 -5.099557 -6.527250 -4.996183 -163.207689 -82.870316 178.181884 -1.019999 6.394509 -25.227735 -16.705282 -2.736581 -6.807231 12.284265 -4.784110 5.269800 158.970141 -76.567222 -177.847363 14.237832 14.637632 31.042576 -4.573746 -70.976864 11.792175 -157.392175 67.276131 -155.329121 -10.392272 -24.512779 7.867913 0.197081 -0.684793 0.094853 0.851865 -55.444891 1.922391 -179.626132 56.589996 179.154497 -4.455096 -42.515739 3.341493 -0.072576 -5.322095 2.070724
-14.378551 43.850573 25.023110 176.944553 -19.251768 -1.711580 -0.431724 16.536232 2.960900 -0.084669 1.716274 0.358720 -0.131759 2.865908 0.596717 -0.385149 14.591258 3.026320 -1.855861 16.605615 -2.240996 -1.457778 -8.272783 -1.931410 11.273749 1.151853 -4.446135 -5.105742 -6.518520 -4.990821 -163.386064 -82.858177 178.352630 -1.033038 6.396148 -25.235287 -16.699564 -2.745004 -6.807135 12.311666 -4.766462 5.281403 159.267809 -76.524404 -178.121649 14.213883 14.631576 31.044238 -4.580532 -70.985444 11.818282 -157.357643 67.282067 -155.301633 -10.375181 -24.502069 7.871312 0.184127 -0.685393 0.093169 0.874776 -55.452538 1.924561 -179.626932 56.593390 179.159293 -4.442259 -42.524795 3.347925 -0.052588 -4.539147 1.766069
-14.379576 43.851855 25.026072 176.933359 -19.249850 -1.719926 -0.412518 16.537859 2.972840 -0.083722 1.716971 0.359265 -0.133711 2.864073 0.598178 -0.357138 14.603928 3.035256 -1.880835 16.584787 -2.239631 -1.461066 -8.281242 -1.929189 11.253062 1.136196 -4.451151 -5.098769 -6.510596 -4.988124 -163.482825 -82.845537 178.434042 -1.032895 6.398053 -25.230816 -16.709056 -2.755451 -6.801739 12.311337 -4.762849 5.287122 159.587379 -76.495775 -178.402563 14.239739 14.643461 31.025830 -4.602387 -70.986290 11.852710 -157.324481 67.285572 -155.272003 -10.366038 -24.491614 7.870474 0.202315 -0.690176 0.094009 0.890704 -55.454788 1.927922 -179.628063 56.595866 179.167503 -4.435527 -42.528432 3.355400 -0.027090 -3.609302 1.406689
-14.380548 43.853942 25.027564 176.933508 -19.257620 -1.731039 -0.403584 16.546492 2.984740 -0.077649 1.721514 0.357905 -0.130318 2.867285 0.599988 -0.354117 14.602803 3.041028 -1.893079 16.572339 -2.238248 -1.465227 -8.289763 -1.927061 11.244590 1.128899 -4.454036 -5.092910 -6.503705 -4.983407 -163.569255 -82.830297 178.516888 -1.033556 6.400321 -25.232114 -16.699634 -2.757057 -6.796269 12.292723 -4.763236 5.286229 159.910168 -76.475437 -178.682193 14.263155 14.650919 31.011089 -4.618040 -70.971287 11.873176 -157.307193 67.292009 -155.251346 -10.379795 -24.497016 7.873643 0.162782 -0.687598 0.090064 0.890763 -55.446998 1.934761 -179.626333 56.598592 179.175021 -4.429304 -42.530182 3.363720 -0.011249 -2.866188 1.118918
-14.382611 43.855847 25.029915 176.925940 -19.259687 -1.732004 -0.385691 16.553586 2.985612 -0.080337 1.719727 0.360836 -0.128021 2.868505 0.600811 -0.341530 14.605384 3.045665 -1.894634 16.553450 -2.231911 -1.482549 -8.299040 -1.920711 11.243720 1.124976 -4.461713 -5.101628 -6.499866 -4.969697 -163.634702 -82.824760 178.581253 -1.033249 6.398831 -25.232689 -16.707657 -2.763351 -6.789819 12.323126 -4.759460 5.304517 160.085240 -76.446079 -178.853416 14.179965 14.631170 31.002897 -4.615372 -70.966866 11.879286 -157.285201 67.297646 -155.225750 -10.405807 -24.493824 7.877662 0.191359 -0.683013 0.091563 0.926947 -55.445033 1.909493 -179.645847 56.602734 179.173784 -4.423457 -42.529530 3.364844 -0.001214 -2.272966 0.892412
-14.382520 43.857886 25.032281 176.920288 -19.261698 -1.744542 -0.368363 16.557738 2.999652 -0.078970 1.720526 0.361141 -0.125805 2.869699 0.601316 -0.329409 14.608034 3.048728 -1.908657 16.542478 -2.225697 -1.492215 -8.338806 -1.908485 11.241495 1.118441 -4.466501 -5.105569 -6.494793 -4.958105 -163.691652 -82.818968 178.635682 -1.034656 6.405950 -25.236249 -16.717675 -2.770506 -6.780708 12.424154 -4.763411 5.341492 160.021646 -76.411522 -178.864158 14.150001 14.621921 30.981959 -4.646920 -70.961476 11.916607 -157.265529 67.301609 -155.203205 -10.396482 -24.488843 7.863716 0.197041 -0.685071 0.099246 0.927135 -55.444096 1.920618 -179.651277 56.604740 179.177354 -4.415234 -42.530808 3.363595 0.001447 -1.798172 0.712942
-14.384200 43.860187 25.033344 176.925469 -19.269575 -1.747228 -0.368327 16.566433 3.000310 -0.073672 1.721607 0.360858 -0.123798 2.871169 0.601741 -0.318628 14.611250 3.051403 -1.922330 16.531881 -2.220339 -1.500518 -8.360448 -1.899836 11.239502 1.114994 -4.469413 -5.103292 -6.492879 -4.952290 -163.734311 -82.814200 178.674167 -1.033220 6.411755 -25.234226 -16.712470 -2.778976 -6.776848 12.442236 -4.759584 5.364859 160.019482 -76.391134 -178.887397 14.143443 14.617292 30.967601 -4.660188 -70.947897 11.921149 -157.275810 67.307419 -155.207435 -10.426228 -24.494861 7.868013 0.227669 -0.678867 0.096732 0.931603 -55.434538 1.913936 -179.640409 56.610332 179.189080 -4.414109 -42.533292 3.385167 0.006030 -1.415350 0.559448
-14.385038 43.862027 25.035238 176.922287 -19.271040 -1.749681 -0.360551 16.567745 3.003309 -0.069197 1.723003 0.362384 -0.121635 2.872734 0.602189 -0.317864 14.611385 3.052765 -1.914022 16.511570 -2.216113 -1.519067 -8.368345 -1.890982 11.246804 1.114982 -4.476675 -5.104643 -6.490815 -4.945983 -163.758857 -82.813294 178.697163 -1.031288 6.416999 -25.221597 -16.664770 -2.774689 -6.777940 12.422653 -4.758034 5.383741 159.978477 -76.364011 -178.873331 14.148808 14.627558 30.961513 -4.672219 -70.945377 11.933431 -157.279486 67.311612 -155.209612 -10.429772 -24.490926 7.867431 0.185563 -0.684305 0.091464 0.932591 -55.433943 1.912426 -179.615509 56.613863 179.213849 -4.392903 -42.531139 3.380894 0.006688 -1.114421 0.448791
-14.385357 43.863991 25.036139 176.905915 -19.277480 -1.747611 -0.334129 16.573745 3.010671 -0.072852 1.724295 0.361019 -0.119129 2.874226 0.602568 -0.314794 14.611851 3.055585 -1.913285 16.500110 -2.213534 -1.528699 -8.384247 -1.883035 11.270994 1.113124 -4.485056 -5.134822 -6.488475 -4.938424 -163.764811 -82.813104 178.703029 -1.027868 6.414744 -25.194747 -16.654768 -2.776073 -6.778961 12.438863 -4.754392 5.398673 159.911722 -76.331980 -178.832284 14.137209 14.622805 30.936508 -4.674965 -70.938323 11.946731 -157.295949 67.317991 -155.225550 -10.425486 -24.487614 7.861527 0.203394 -0.688838 0.090758 0.956039 -55.423750 1.904086 -179.611048 56.618039 179.226265 -4.386162 -42.536439 3.386930 0.012346 -0.871500 0.355517
-14.383274 43.866167 25.035930 176.902922 -19.289696 -1.761003 -0.320344 16.586959 3.025102 -0.073477 1.724191 0.362090 -0.116517 2.875721 0.602853 -0.302201 14.614653 3.058177 -1.918365 16.487165 -2.206481 -1.538804 -8.394113 -1.875862 11.260311 1.106363 -4.484438 -5.116397 -6.483325 -4.940601 -163.780852 -82.809926 178.722922 -1.029435 6.425181 -25.199807 -16.656237 -2.780914 -6.776132 12.456275 -4.747155 5.409630 159.833847 -76.311756 -178.784826 14.161864 14.589956 30.875734 -4.715945 -70.923532 11.985955 -157.404436 67.335315 -155.309226 -10.475284 -24.487307 7.839091 0.224154 -0.695193 0.102184 0.945453 -55.409973 1.920794 -179.615322 56.618690 179.230116 -4.379688 -42.541298 3.391372 0.016461 -0.678777 0.277359
-14.382156 43.867676 25.036726 176.892424 -19.293815 -1.763693 -0.304354 16.590975 3.030647 -0.073449 1.723864 0.362964 -0.116283 2.876694 0.603412 -0.283218 14.621504 3.060405 -1.928216 16.473397 -2.199192 -1.547673 -8.394478 -1.872958 11.247018 1.096604 -4.484096 -5.101359 -6.481440 -4.945601 -163.762031 -82.804786 178.702935 -1.024962 6.425808 -25.185138 -16.662524 -2.789989 -6.772613 12.475948 -4.736723 5.417617 159.760463 -76.291830 -178.741866 14.167177 14.589478 30.856609 -4.727098 -70.917467 12.003611 -157.454143 67.346468 -155.348083 -10.500955 -24.491555 7.850609 0.242546 -0.693285 0.089623 0.955259 -55.403416 1.920691 -179.624151 56.621504 179.227983 -4.368765 -42.548514 3.396505 0.013407 -0.588753 0.233826
